<svg width="40" height="40" viewBox="0 0 40 40" fill="none" xmlns="http://www.w3.org/2000/svg">
<rect x="0.5" y="0.5" width="39" height="39" rx="19.5" fill="white" fill-opacity="0.1"/>
<rect x="0.5" y="0.5" width="39" height="39" rx="19.5" stroke="#FFF0F0"/>
<path d="M19.752 26.6185C19.8609 26.6185 19.9725 26.5941 20.087 26.5452C20.2014 26.4963 20.2939 26.4366 20.3645 26.366L26.8612 19.8685C27.0706 19.6591 27.2323 19.4452 27.3462 19.2269C27.4595 19.0074 27.5162 18.7669 27.5162 18.5052C27.5162 18.2402 27.4595 17.983 27.3462 17.7335C27.2323 17.4835 27.0706 17.2558 26.8612 17.0502L23.7362 13.9252C23.53 13.7158 23.3181 13.5622 23.1003 13.4644C22.8831 13.3666 22.642 13.3177 22.377 13.3177C22.1153 13.3177 21.8723 13.3666 21.6478 13.4644C21.4234 13.5622 21.212 13.7155 21.0137 13.9244L20.287 14.651L21.8287 16.1969C21.9942 16.3597 22.1178 16.5447 22.1995 16.7519C22.2806 16.9591 22.3212 17.1694 22.3212 17.3827C22.3212 17.8166 22.1792 18.1755 21.8953 18.4594C21.6114 18.7433 21.2528 18.8849 20.8195 18.8844C20.6056 18.8844 20.397 18.8519 20.1937 18.7869C19.9903 18.7219 19.8073 18.608 19.6445 18.4452L18.4187 17.2252C18.3225 17.1291 18.1998 17.081 18.0503 17.081C17.9003 17.081 17.7773 17.1291 17.6812 17.2252L14.452 20.4544C14.3681 20.5388 14.305 20.6347 14.2628 20.7419C14.2206 20.8491 14.1995 20.9574 14.1995 21.0669C14.1995 21.2635 14.2625 21.4255 14.3887 21.5527C14.5142 21.6805 14.6753 21.7444 14.872 21.7444C14.9809 21.7444 15.0925 21.7199 15.207 21.671C15.3214 21.6216 15.4139 21.5616 15.4845 21.491L17.8303 19.1452C17.9081 19.0674 18.0031 19.0249 18.1153 19.0177C18.2275 19.0105 18.3292 19.053 18.4203 19.1452C18.5092 19.2341 18.5537 19.3324 18.5537 19.4402C18.5537 19.548 18.5092 19.6463 18.4203 19.7352L16.0787 22.081C15.9942 22.1655 15.9309 22.2613 15.8887 22.3685C15.847 22.4763 15.8262 22.5847 15.8262 22.6935C15.8262 22.8797 15.8917 23.0383 16.0228 23.1694C16.1539 23.3005 16.3125 23.3663 16.4987 23.3669C16.6075 23.3669 16.7192 23.3422 16.8337 23.2927C16.9481 23.2433 17.0406 23.1835 17.1112 23.1135L19.6495 20.5802C19.7273 20.5019 19.822 20.4591 19.9337 20.4519C20.0453 20.4447 20.147 20.4872 20.2387 20.5794C20.3275 20.6683 20.372 20.7666 20.372 20.8744C20.372 20.9822 20.3275 21.0805 20.2387 21.1694L17.7053 23.7077C17.632 23.7783 17.5714 23.8708 17.5237 23.9852C17.4759 24.0997 17.452 24.2113 17.452 24.3202C17.452 24.5058 17.5178 24.6641 17.6495 24.7952C17.7812 24.9274 17.9398 24.9935 18.1253 24.9935C18.2342 24.9935 18.3425 24.9724 18.4503 24.9302C18.5581 24.888 18.6537 24.8247 18.737 24.7402L21.2762 22.2069C21.3539 22.1285 21.4487 22.0858 21.5603 22.0785C21.672 22.0719 21.7739 22.1144 21.8662 22.206C21.9545 22.2949 21.9987 22.3933 21.9987 22.501C21.9987 22.6088 21.9542 22.7072 21.8653 22.796L19.3278 25.3335C19.2439 25.418 19.1809 25.5194 19.1387 25.6377C19.0964 25.756 19.0753 25.8641 19.0753 25.9619C19.0753 26.1585 19.1445 26.3172 19.2828 26.4377C19.4212 26.5583 19.5778 26.6185 19.7528 26.6185M19.7478 27.4519C19.3195 27.4519 18.9528 27.2952 18.6478 26.9819C18.3428 26.6685 18.2089 26.2813 18.2462 25.8202C17.7739 25.8258 17.3809 25.6849 17.067 25.3977C16.7531 25.1105 16.6039 24.7094 16.6195 24.1944C16.105 24.1999 15.6995 24.0527 15.4028 23.7527C15.1062 23.4527 14.9712 23.0577 14.9978 22.5677C14.5345 22.5733 14.1467 22.4427 13.8345 22.176C13.5228 21.9105 13.367 21.5405 13.367 21.066C13.367 20.8522 13.4084 20.6383 13.4912 20.4244C13.5739 20.2099 13.6962 20.0216 13.8578 19.8594L17.1037 16.6135C17.3592 16.3585 17.6742 16.231 18.0487 16.231C18.4231 16.231 18.7381 16.3588 18.9937 16.6144L20.2028 17.8235C20.2734 17.8974 20.3606 17.9583 20.4645 18.006C20.5684 18.0538 20.6853 18.0774 20.8153 18.0769C20.9937 18.0769 21.1512 18.0147 21.2878 17.8902C21.4245 17.7658 21.4931 17.6035 21.4937 17.4035C21.4937 17.2735 21.4698 17.1569 21.422 17.0535C21.3742 16.9497 21.3137 16.8624 21.2403 16.7919L18.3737 13.9252C18.167 13.7158 17.9523 13.5622 17.7295 13.4644C17.5067 13.3666 17.2628 13.3177 16.9978 13.3177C16.7362 13.3177 16.4984 13.3666 16.2845 13.4644C16.0712 13.5622 15.8598 13.7158 15.6503 13.9252L13.1128 16.4669C12.8217 16.7574 12.6345 17.1122 12.5512 17.531C12.4678 17.9499 12.5059 18.3499 12.6653 18.731C12.6964 18.8388 12.6825 18.943 12.6237 19.0435C12.5648 19.1441 12.4814 19.208 12.3737 19.2352C12.2659 19.2624 12.1589 19.248 12.0528 19.1919C11.9467 19.1358 11.88 19.0533 11.8528 18.9444C11.6734 18.4055 11.6342 17.8613 11.7353 17.3119C11.8364 16.7624 12.0975 16.2772 12.5187 15.856L15.0387 13.3352C15.3292 13.0474 15.6367 12.8335 15.9612 12.6935C16.2856 12.5541 16.6364 12.4844 17.0137 12.4844C17.3909 12.4844 17.7387 12.5544 18.057 12.6944C18.3759 12.8338 18.6792 13.0474 18.967 13.3352L19.692 14.061L20.4187 13.3352C20.7092 13.0474 21.0139 12.8335 21.3328 12.6935C21.6517 12.5541 21.9998 12.4844 22.377 12.4844C22.7542 12.4844 23.105 12.5544 23.4295 12.6944C23.7534 12.8338 24.0589 13.0474 24.3462 13.3352L27.4512 16.4394C27.7384 16.7266 27.96 17.0491 28.1162 17.4069C28.2723 17.7647 28.35 18.1322 28.3495 18.5094C28.3495 18.8872 28.2717 19.2352 28.1162 19.5535C27.9606 19.8719 27.7389 20.1752 27.4512 20.4635L20.9537 26.9552C20.7809 27.1285 20.5925 27.2547 20.3887 27.3335C20.1853 27.4124 19.9723 27.4519 19.7478 27.4519Z" fill="#F68E5F"/>
</svg>
