<svg width="20" height="18" viewBox="0 0 20 18" fill="none" xmlns="http://www.w3.org/2000/svg">
<path d="M15.726 10.02L12 13H7V12H11.065C11.1554 12 11.2442 11.9754 11.3218 11.9289C11.3993 11.8824 11.4629 11.8157 11.5055 11.736C11.5482 11.6563 11.5685 11.5664 11.5642 11.4761C11.5598 11.3858 11.5311 11.2983 11.481 11.223L10.593 9.891C10.4105 9.61712 10.1633 9.39251 9.87316 9.23709C9.58307 9.08166 9.25911 9.00023 8.93 9H1C0.734784 9 0.48043 9.10536 0.292893 9.29289C0.105357 9.48043 0 9.73478 0 10V16C0 16.5304 0.210714 17.0391 0.585786 17.4142C0.960859 17.7893 1.46957 18 2 18H11.639C12.0666 18.0001 12.4893 17.9088 12.8787 17.7322C13.2682 17.5556 13.6153 17.2977 13.897 16.976L20 10L18.548 9.516C18.0729 9.35783 17.5658 9.32109 17.0729 9.40912C16.58 9.49716 16.117 9.70716 15.726 10.02ZM17.258 4.39C17.709 3.925 17.988 3.282 17.988 2.572C17.988 1.862 17.709 1.219 17.258 0.754C17.0298 0.516116 16.756 0.326726 16.4529 0.197167C16.1498 0.0676094 15.8236 0.00054857 15.494 6.44141e-08C15.494 6.44141e-08 14.25 -0.00300014 13 1.286C11.75 -0.00300014 10.506 6.44141e-08 10.506 6.44141e-08C10.1764 0.000419164 9.85035 0.067323 9.54725 0.196708C9.24415 0.326092 8.97027 0.515298 8.742 0.753C8.291 1.219 8.012 1.861 8.012 2.571C8.012 3.281 8.291 3.925 8.742 4.389L13 9L17.258 4.39Z" fill="#F68E5F"/>
</svg>
