<svg width="40" height="40" viewBox="0 0 40 40" fill="none" xmlns="http://www.w3.org/2000/svg">
<rect x="0.5" y="0.5" width="39" height="39" rx="19.5" fill="white" fill-opacity="0.1"/>
<rect x="0.5" y="0.5" width="39" height="39" rx="19.5" stroke="#FFF0F0"/>
<path d="M15.0342 18.3308L16.18 17.707V22.2904" stroke="#F68E5F" stroke-width="0.416667" stroke-linecap="round" stroke-linejoin="round"/>
<path d="M20.6066 19.2254C20.6066 18.3868 19.9269 17.707 19.0884 17.707C18.25 17.707 17.5703 18.3868 17.5703 19.2254V20.772C17.5703 21.6106 18.25 22.2904 19.0884 22.2904C19.9269 22.2904 20.6066 21.6106 20.6066 20.772V19.2254Z" stroke="#F68E5F" stroke-width="0.416667" stroke-linecap="round" stroke-linejoin="round"/>
<path d="M24.965 19.2254C24.965 18.3868 24.2853 17.707 23.4468 17.707C22.6084 17.707 21.9287 18.3868 21.9287 19.2254V20.772C21.9287 21.6106 22.6084 22.2904 23.4468 22.2904C24.2853 22.2904 24.965 21.6106 24.965 20.772V19.2254Z" stroke="#F68E5F" stroke-width="0.416667" stroke-linecap="round" stroke-linejoin="round"/>
<path d="M26.042 12.293H13.9587C13.5166 12.293 13.0927 12.4686 12.7801 12.7811C12.4676 13.0937 12.292 13.5176 12.292 13.9596V26.043C12.292 26.485 12.4676 26.9089 12.7801 27.2215C13.0927 27.534 13.5166 27.7096 13.9587 27.7096H26.042C26.484 27.7096 26.9079 27.534 27.2205 27.2215C27.5331 26.9089 27.7087 26.485 27.7087 26.043V13.9596C27.7087 13.5176 27.5331 13.0937 27.2205 12.7811C26.9079 12.4686 26.484 12.293 26.042 12.293Z" stroke="#F68E5F" stroke-width="0.416667" stroke-linecap="round" stroke-linejoin="round"/>
</svg>
