<svg width="172" height="138" viewBox="0 0 172 138" fill="none" xmlns="http://www.w3.org/2000/svg">
<line x1="14.5" y1="-2.18557e-08" x2="14.5" y2="138" stroke="url(#paint0_linear_7099_140744)" stroke-opacity="0.1"/>
<line x1="38.5" y1="-2.18557e-08" x2="38.5" y2="138" stroke="url(#paint1_linear_7099_140744)" stroke-opacity="0.1"/>
<line x1="62.5" y1="-2.18557e-08" x2="62.5" y2="138" stroke="url(#paint2_linear_7099_140744)" stroke-opacity="0.1"/>
<line x1="86.5" y1="-2.18557e-08" x2="86.5" y2="138" stroke="url(#paint3_linear_7099_140744)" stroke-opacity="0.1"/>
<line x1="110.5" y1="-2.18557e-08" x2="110.5" y2="138" stroke="url(#paint4_linear_7099_140744)" stroke-opacity="0.1"/>
<line x1="134.5" y1="-2.18557e-08" x2="134.5" y2="138" stroke="url(#paint5_linear_7099_140744)" stroke-opacity="0.1"/>
<line x1="158.5" y1="-2.18557e-08" x2="158.5" y2="138" stroke="url(#paint6_linear_7099_140744)" stroke-opacity="0.1"/>
<line x1="4.37114e-08" y1="32.5" x2="172" y2="32.5" stroke="url(#paint7_linear_7099_140744)" stroke-opacity="0.1"/>
<line x1="4.37114e-08" y1="56.5" x2="172" y2="56.5" stroke="url(#paint8_linear_7099_140744)" stroke-opacity="0.1"/>
<line x1="4.37114e-08" y1="80.5" x2="172" y2="80.5" stroke="url(#paint9_linear_7099_140744)" stroke-opacity="0.1"/>
<line x1="4.37114e-08" y1="104.5" x2="172" y2="104.5" stroke="url(#paint10_linear_7099_140744)" stroke-opacity="0.1"/>
<rect width="24" height="24" transform="translate(39 56)" fill="black" fill-opacity="0.05"/>
<rect width="24" height="24" transform="translate(110 80)" fill="black" fill-opacity="0.05"/>
<defs>
<linearGradient id="paint0_linear_7099_140744" x1="13.5" y1="2.18557e-08" x2="13.5" y2="138" gradientUnits="userSpaceOnUse">
<stop stop-opacity="0"/>
<stop offset="0.512195"/>
<stop offset="1" stop-opacity="0"/>
</linearGradient>
<linearGradient id="paint1_linear_7099_140744" x1="37.5" y1="2.18557e-08" x2="37.5" y2="138" gradientUnits="userSpaceOnUse">
<stop stop-opacity="0"/>
<stop offset="0.512195"/>
<stop offset="1" stop-opacity="0"/>
</linearGradient>
<linearGradient id="paint2_linear_7099_140744" x1="61.5" y1="2.18557e-08" x2="61.5" y2="138" gradientUnits="userSpaceOnUse">
<stop stop-opacity="0"/>
<stop offset="0.512195"/>
<stop offset="1" stop-opacity="0"/>
</linearGradient>
<linearGradient id="paint3_linear_7099_140744" x1="85.5" y1="2.18557e-08" x2="85.5" y2="138" gradientUnits="userSpaceOnUse">
<stop stop-opacity="0"/>
<stop offset="0.512195"/>
<stop offset="1" stop-opacity="0"/>
</linearGradient>
<linearGradient id="paint4_linear_7099_140744" x1="109.5" y1="2.18557e-08" x2="109.5" y2="138" gradientUnits="userSpaceOnUse">
<stop stop-opacity="0"/>
<stop offset="0.512195"/>
<stop offset="1" stop-opacity="0"/>
</linearGradient>
<linearGradient id="paint5_linear_7099_140744" x1="133.5" y1="2.18557e-08" x2="133.5" y2="138" gradientUnits="userSpaceOnUse">
<stop stop-opacity="0"/>
<stop offset="0.512195"/>
<stop offset="1" stop-opacity="0"/>
</linearGradient>
<linearGradient id="paint6_linear_7099_140744" x1="157.5" y1="2.18557e-08" x2="157.5" y2="138" gradientUnits="userSpaceOnUse">
<stop stop-opacity="0"/>
<stop offset="0.512195"/>
<stop offset="1" stop-opacity="0"/>
</linearGradient>
<linearGradient id="paint7_linear_7099_140744" x1="-4.37114e-08" y1="33.5" x2="172" y2="33.5" gradientUnits="userSpaceOnUse">
<stop stop-opacity="0"/>
<stop offset="0.512195"/>
<stop offset="1" stop-opacity="0"/>
</linearGradient>
<linearGradient id="paint8_linear_7099_140744" x1="-4.37114e-08" y1="57.5" x2="172" y2="57.5" gradientUnits="userSpaceOnUse">
<stop stop-opacity="0"/>
<stop offset="0.512195"/>
<stop offset="1" stop-opacity="0"/>
</linearGradient>
<linearGradient id="paint9_linear_7099_140744" x1="-4.37114e-08" y1="81.5" x2="172" y2="81.5" gradientUnits="userSpaceOnUse">
<stop stop-opacity="0"/>
<stop offset="0.512195"/>
<stop offset="1" stop-opacity="0"/>
</linearGradient>
<linearGradient id="paint10_linear_7099_140744" x1="-4.37114e-08" y1="105.5" x2="172" y2="105.5" gradientUnits="userSpaceOnUse">
<stop stop-opacity="0"/>
<stop offset="0.512195"/>
<stop offset="1" stop-opacity="0"/>
</linearGradient>
</defs>
</svg>
