<svg width="60" height="60" viewBox="0 0 60 60" fill="none" xmlns="http://www.w3.org/2000/svg">
<path d="M10.4228 44.5323C15.2818 41.9867 18.6093 37.6601 20.0165 32.7779C15.8421 33.5292 11.4911 31.5467 9.41906 27.5916C6.86418 22.7149 8.74553 16.6932 13.6223 14.1383C14.046 13.9163 14.4775 13.7263 14.9204 13.5752C19.5203 11.935 24.7427 13.8885 27.0756 18.3415C32.0244 27.7877 28.3813 39.458 18.9315 44.4087C14.7963 46.5751 10.2395 47.0947 6 46.2013C7.50521 45.8358 8.98901 45.2834 10.4228 44.5323ZM34.4804 44.5323C39.3394 41.9867 42.6669 37.6601 44.0742 32.7779C39.8997 33.5292 35.5487 31.5467 33.4767 27.5916C30.9218 22.7149 32.8031 16.6932 37.6799 14.1383C38.1036 13.9163 38.5351 13.7263 38.9781 13.5752C43.5779 11.935 48.8003 13.8885 51.1332 18.3415C56.082 27.7877 52.4389 39.458 42.9891 44.4087C38.8539 46.5751 34.2971 47.0947 30.0576 46.2013C31.5628 45.8358 33.0466 45.2834 34.4804 44.5323Z" fill="#F68E5F"/>
</svg>
