<svg width="158" height="113" viewBox="0 0 158 113" fill="none" xmlns="http://www.w3.org/2000/svg">
<path d="M14.7425 105.108C30.9394 96.6223 42.0311 82.2005 46.7218 65.9264C32.807 68.4308 18.3037 61.8223 11.3969 48.6387C2.88059 32.3829 9.15176 12.3105 25.4076 3.79425C26.8201 3.05422 28.2585 2.42087 29.7348 1.91732C45.0676 -3.55012 62.4758 2.96171 70.2521 17.805C86.7481 49.2925 74.6042 88.1934 43.1049 104.696C29.321 111.917 14.1315 113.649 0 110.671C5.01736 109.453 9.96336 107.611 14.7425 105.108ZM94.9345 105.108C111.131 96.6223 122.223 82.2005 126.914 65.9264C112.999 68.4308 98.4957 61.8223 91.5889 48.6387C83.0726 32.3829 89.3438 12.3105 105.6 3.79425C107.012 3.05422 108.45 2.42087 109.927 1.91732C125.26 -3.55012 142.668 2.96171 150.444 17.805C166.94 49.2925 154.796 88.1934 123.297 104.696C109.513 111.917 94.3235 113.649 80.192 110.671C85.2094 109.453 90.1554 107.611 94.9345 105.108Z" fill="#F68E5F"/>
</svg>
