<svg width="38" height="38" viewBox="0 0 38 38" fill="none" xmlns="http://www.w3.org/2000/svg">
<rect width="37.4631" height="37.4631" rx="18.7316" fill="#F68E5F"/>
<path d="M17.8976 17.8932V14.9766H19.5642V17.8932H22.4809V19.5599H19.5642L19.5638 22.4766H17.8971V19.5599H14.9805V17.8932H17.8976Z" fill="#FFFCFB"/>
<path fill-rule="evenodd" clip-rule="evenodd" d="M14.4912 24.1393C15.5112 25.0605 16.6287 25.8213 17.8904 26.4213C18.5662 26.7422 19.3679 26.713 20.0158 26.3434C21.1087 25.7201 22.06 24.9697 22.9795 24.1393C24.9291 22.3784 26.0654 19.9555 26.14 17.4001L26.227 14.4205C26.237 14.0738 26.2275 13.3097 26.2275 13.3097C25.7897 13.2406 25.3504 13.1815 24.91 13.1322C23.5475 12.9688 22.1908 12.8068 21.0004 12.0788L20.1516 11.5601C19.7911 11.3419 19.3778 11.2266 18.9564 11.2266C18.535 11.2266 18.1217 11.3419 17.7612 11.5601L16.9483 12.0572C15.587 12.8888 13.9283 13.0463 12.3229 13.1988C11.9591 13.2334 11.5979 13.268 11.2437 13.3097C11.2437 13.3097 11.2337 14.0784 11.2437 14.4301L11.3308 17.4001C11.4054 19.9555 12.5416 22.3784 14.4912 24.1393ZM12.0729 14.0601C12.0729 14.1934 12.0741 14.3163 12.077 14.4059L12.1637 17.3759C12.2316 19.6968 13.2637 21.9076 15.0495 23.5209C16.0129 24.3905 17.0633 25.1051 18.2483 25.6684C18.4617 25.7689 18.696 25.8169 18.9317 25.8084C19.1674 25.8 19.3977 25.7352 19.6033 25.6197C20.6262 25.0363 21.5279 24.3276 22.4212 23.5209C24.207 21.9076 25.2391 19.6972 25.307 17.3759L25.3941 14.3963C25.3966 14.303 25.3983 14.1718 25.3983 14.0318C25.2033 14.007 25.0047 13.9826 24.8025 13.9584L24.78 13.9559C24.3171 13.9039 23.8556 13.8407 23.3958 13.7663C22.4608 13.608 21.4825 13.3501 20.5658 12.7901L19.717 12.2709C19.4874 12.1327 19.2244 12.0597 18.9564 12.0597C18.6884 12.0597 18.4254 12.1327 18.1958 12.2709L17.3829 12.768C16.4162 13.3584 15.3495 13.6384 14.3216 13.8038C13.6841 13.9063 12.9975 13.9718 12.3545 14.0334L12.0729 14.0601Z" fill="#FFFCFB"/>
</svg>
