<svg width="38" height="38" viewBox="0 0 38 38" fill="none" xmlns="http://www.w3.org/2000/svg">
<rect width="37.4631" height="37.4631" rx="18.7316" fill="#F68E5F"/>
<path d="M12.7161 14.2617C12.7161 12.9398 13.2412 11.672 14.1759 10.7372C15.1107 9.80248 16.3785 9.27734 17.7004 9.27734C19.0224 9.27734 20.2902 9.80248 21.2249 10.7372C22.1597 11.672 22.6848 12.9398 22.6848 14.2617C22.6848 14.3985 22.6305 14.5296 22.5338 14.6263C22.4371 14.723 22.3059 14.7773 22.1692 14.7773C22.0324 14.7773 21.9013 14.723 21.8046 14.6263C21.7079 14.5296 21.6536 14.3985 21.6536 14.2617C21.6536 13.2133 21.2371 12.2078 20.4957 11.4664C19.7544 10.7251 18.7489 10.3086 17.7004 10.3086C16.652 10.3086 15.6465 10.7251 14.9052 11.4664C14.1638 12.2078 13.7473 13.2133 13.7473 14.2617C13.7473 14.3985 13.693 14.5296 13.5963 14.6263C13.4996 14.723 13.3684 14.7773 13.2317 14.7773C13.0949 14.7773 12.9638 14.723 12.8671 14.6263C12.7704 14.5296 12.7161 14.3985 12.7161 14.2617ZM24.5754 18.2148C24.1282 18.2144 23.6912 18.3489 23.3216 18.6007C23.2451 18.2486 23.0847 17.9202 22.8539 17.6436C22.6231 17.3669 22.3288 17.1501 21.9961 17.0118C21.6634 16.8734 21.3022 16.8176 20.9433 16.849C20.5844 16.8804 20.2384 16.9982 19.9348 17.1922V14.2617C19.9348 13.6691 19.6994 13.1008 19.2804 12.6818C18.8613 12.2628 18.293 12.0273 17.7004 12.0273C17.1078 12.0273 16.5395 12.2628 16.1205 12.6818C15.7015 13.1008 15.4661 13.6691 15.4661 14.2617V21.7383L14.8189 20.6984C14.5212 20.1856 14.0319 19.8121 13.4587 19.66C12.8855 19.508 12.2754 19.5898 11.7626 19.8876C11.2498 20.1854 10.8762 20.6747 10.7242 21.2479C10.5721 21.8211 10.654 22.4312 10.9518 22.944L13.4714 27.2409C13.5421 27.3552 13.6545 27.4374 13.7849 27.4701C13.9152 27.5027 14.0532 27.4832 14.1693 27.4156C14.2855 27.3481 14.3707 27.2379 14.4068 27.1084C14.4429 26.979 14.427 26.8406 14.3626 26.7227L11.8455 22.4258C11.686 22.1494 11.6427 21.821 11.7253 21.5128C11.8079 21.2046 12.0096 20.9418 12.2859 20.7822C12.5623 20.6227 12.8907 20.5795 13.1989 20.662C13.5072 20.7446 13.77 20.9463 13.9295 21.2227C13.9319 21.2278 13.9348 21.2327 13.9381 21.2373L15.5434 23.8154C15.6025 23.9108 15.6911 23.9842 15.7958 24.0247C15.9004 24.0652 16.0154 24.0704 16.1233 24.0396C16.2312 24.0088 16.3261 23.9436 16.3936 23.854C16.4611 23.7644 16.4975 23.6552 16.4973 23.543V14.2617C16.4973 13.9426 16.6241 13.6366 16.8497 13.411C17.0753 13.1854 17.3813 13.0586 17.7004 13.0586C18.0195 13.0586 18.3255 13.1854 18.5512 13.411C18.7768 13.6366 18.9036 13.9426 18.9036 14.2617V20.1055C18.9036 20.2422 18.9579 20.3734 19.0546 20.4701C19.1513 20.5668 19.2824 20.6211 19.4192 20.6211C19.5559 20.6211 19.6871 20.5668 19.7838 20.4701C19.8805 20.3734 19.9348 20.2422 19.9348 20.1055V19.0742C19.9348 18.7551 20.0616 18.4491 20.2872 18.2235C20.5128 17.9979 20.8188 17.8711 21.1379 17.8711C21.457 17.8711 21.763 17.9979 21.9887 18.2235C22.2143 18.4491 22.3411 18.7551 22.3411 19.0742V20.793C22.3411 20.9297 22.3954 21.0609 22.4921 21.1576C22.5888 21.2543 22.7199 21.3086 22.8567 21.3086C22.9934 21.3086 23.1246 21.2543 23.2213 21.1576C23.318 21.0609 23.3723 20.9297 23.3723 20.793V20.4492C23.3723 20.1301 23.4991 19.8241 23.7247 19.5985C23.9503 19.3729 24.2563 19.2461 24.5754 19.2461C24.8945 19.2461 25.2005 19.3729 25.4262 19.5985C25.6518 19.8241 25.7786 20.1301 25.7786 20.4492V23.543C25.7786 25.4448 25.1512 26.7381 25.1452 26.7502C25.0854 26.8721 25.0762 27.0127 25.1195 27.1414C25.1627 27.2701 25.2551 27.3766 25.3764 27.4377C25.4473 27.4754 25.5263 27.4955 25.6067 27.4961C25.7027 27.4963 25.7968 27.4697 25.8785 27.4193C25.9602 27.3689 26.0262 27.2967 26.069 27.2108C26.0991 27.1506 26.8107 25.7026 26.8107 23.543V20.4492C26.8107 20.1557 26.7528 19.8651 26.6405 19.594C26.5282 19.3228 26.3635 19.0765 26.1559 18.869C25.9484 18.6615 25.7019 18.4969 25.4308 18.3847C25.1596 18.2724 24.8689 18.2147 24.5754 18.2148Z" fill="#FFFCFB"/>
</svg>
