<svg width="38" height="38" viewBox="0 0 38 38" fill="none" xmlns="http://www.w3.org/2000/svg">
<rect width="37.4631" height="37.4631" rx="18.7316" fill="#F68E5F"/>
<path d="M18.7314 14.7344V19.3058L21.7029 20.7915" stroke="#FFFCFB" stroke-width="1.14286" stroke-linecap="round" stroke-linejoin="round"/>
<path d="M25.9622 20.4441C25.5602 22.1389 24.5753 23.6385 23.1798 24.6809C21.7842 25.7233 20.0668 26.2422 18.3275 26.1468C16.5883 26.0514 14.9379 25.3479 13.6647 24.1592C12.3915 22.9705 11.5765 21.3721 11.3621 19.6435C11.1478 17.9149 11.5477 16.1659 12.492 14.7022C13.4363 13.2385 14.8649 12.1532 16.5282 11.6359C18.1915 11.1186 19.9836 11.2023 21.5915 11.8723C23.1994 12.5422 24.5207 13.7559 25.3245 15.3012" stroke="#FFFCFB" stroke-width="1.14286" stroke-linecap="round"/>
<path d="M26.1599 13.0156V15.8728H23.3027" stroke="#FFFCFB" stroke-width="1.14286" stroke-linecap="round" stroke-linejoin="round"/>
</svg>
