<svg width="12" height="16" viewBox="0 0 12 16" fill="none" xmlns="http://www.w3.org/2000/svg">
<path d="M10.6523 8.57812L8.22656 7.38281C9.17578 6.60938 9.80859 5.44922 9.80859 4.14844C9.80859 1.86328 7.94531 0 5.69531 0C3.41016 0 1.54688 1.86328 1.54688 4.14844C1.54688 5.73047 2.49609 7.13672 3.79688 7.80469V10.2656C2.21484 9.91406 2.28516 9.91406 2.10938 9.91406C1.72266 9.91406 1.33594 10.0898 1.05469 10.3711L0 11.4258L3.83203 15.2578C4.14844 15.5742 4.60547 15.75 5.0625 15.75H9.80859C10.5117 15.75 11.1445 15.2227 11.2852 14.5195L11.8828 10.9688C12.0234 9.98438 11.5312 9.03516 10.6523 8.57812ZM10.4062 10.7227L9.80859 14.2734H5.0625C4.99219 14.2734 4.92188 14.2383 4.88672 14.2031L2.10938 11.4258L5.30859 12.0938V4.14844C5.30859 3.9375 5.48438 3.76172 5.69531 3.76172C5.90625 3.76172 6.04688 3.9375 6.04688 4.14844V8.64844H7.38281L9.98438 9.94922C10.2656 10.0898 10.4414 10.4062 10.4062 10.7227ZM3.05859 4.14844C3.05859 2.67188 4.25391 1.51172 5.69531 1.51172C7.13672 1.51172 8.29688 2.67188 8.29688 4.14844C8.29688 4.85156 8.01562 5.48438 7.55859 5.97656V4.14844C7.55859 3.09375 6.71484 2.25 5.69531 2.25C4.64062 2.25 3.79688 3.09375 3.79688 4.14844V5.97656C3.33984 5.48438 3.05859 4.85156 3.05859 4.14844Z" fill="#94A3B8"/>
</svg>
