<svg width="23" height="17" viewBox="0 0 23 17" fill="none" xmlns="http://www.w3.org/2000/svg">
<path d="M18 10.0312V2.01562C18 1.45312 17.8047 0.976562 17.4141 0.585938C17.0234 0.195312 16.5625 0 16.0312 0H2.01562C1.45312 0 0.976562 0.195312 0.585938 0.585938C0.195312 0.976562 0 1.45312 0 2.01562V10.0312C0 10.5625 0.195312 11.0234 0.585938 11.4141C0.976562 11.8047 1.45312 12 2.01562 12H16.0312C16.5625 12 17.0234 11.8047 17.4141 11.4141C17.8047 11.0234 18 10.5625 18 10.0312ZM9 9C8.46875 9 7.97656 8.86719 7.52344 8.60156C7.07031 8.33594 6.70312 7.97656 6.42188 7.52344C6.14062 7.07031 6 6.5625 6 6C6 5.46875 6.14062 4.97656 6.42188 4.52344C6.70312 4.07031 7.07031 3.70312 7.52344 3.42188C7.97656 3.14062 8.46875 3 9 3C9.5625 3 10.0703 3.14062 10.5234 3.42188C10.9766 3.70312 11.3359 4.07031 11.6016 4.52344C11.8672 4.97656 12 5.46875 12 6C12 6.5625 11.8672 7.07031 11.6016 7.52344C11.3359 7.97656 10.9766 8.33594 10.5234 8.60156C10.0703 8.86719 9.5625 9 9 9ZM22.0312 3V14.0156C22.0312 14.5781 21.8359 15.0547 21.4453 15.4453C21.0547 15.8359 20.5781 16.0312 20.0156 16.0312H3V14.0156H20.0156V3H22.0312Z" fill="#059669"/>
</svg>
