<svg width="18" height="17" viewBox="0 0 18 17" fill="none" xmlns="http://www.w3.org/2000/svg">
<path d="M8.75 0C5.30375 0 2.5 2.80375 2.5 6.25C2.5 9.69625 5.30375 12.5 8.75 12.5C12.1962 12.5 15 9.69625 15 6.25C15 2.80375 12.1962 0 8.75 0ZM8.75 1.25C11.5069 1.25 13.75 3.49313 13.75 6.25C13.75 9.00688 11.5069 11.25 8.75 11.25C5.99312 11.25 3.75 9.00688 3.75 6.25C3.75 3.49313 5.99312 1.25 8.75 1.25ZM8.125 2.5V3.24375C7.67447 3.40781 7.30138 3.7341 7.07875 4.15875C6.88513 4.53278 6.82683 4.96227 6.91375 5.37437C6.99062 5.73293 7.16895 6.06183 7.4275 6.32187C7.59812 6.4925 7.80125 6.63063 8.025 6.72625C8.24875 6.82188 8.49375 6.875 8.75 6.875C8.83958 6.87542 8.92208 6.89125 8.9975 6.9225C9.07176 6.95267 9.13922 6.99742 9.1959 7.0541C9.25258 7.11078 9.29733 7.17824 9.3275 7.2525C9.35875 7.32792 9.37458 7.41042 9.375 7.5C9.37738 7.62304 9.34263 7.74395 9.2753 7.84696C9.20796 7.94997 9.11116 8.03031 8.9975 8.0775C8.92208 8.10875 8.83958 8.12458 8.75 8.125C8.66042 8.12458 8.57792 8.10875 8.5025 8.0775C8.42862 8.04664 8.36136 8.00187 8.30437 7.94563C8.24656 7.88685 8.20095 7.81721 8.17017 7.74073C8.13938 7.66425 8.12403 7.58244 8.125 7.5H6.875C6.8748 7.98634 7.06741 8.45293 7.41063 8.7975C7.61184 9.00158 7.85583 9.15847 8.125 9.25688V10H9.375V9.25625C9.69028 9.14351 9.96989 8.94893 10.1852 8.69248C10.4004 8.43602 10.5436 8.12692 10.6 7.79688C10.6775 7.32818 10.5704 6.84771 10.3013 6.45625C10.1652 6.25695 9.99305 6.08483 9.79375 5.94875C9.59156 5.81103 9.36438 5.71421 9.125 5.66375C9.00162 5.63827 8.87598 5.62529 8.75 5.625C8.66042 5.62458 8.57792 5.60875 8.5025 5.5775C8.42824 5.54733 8.36078 5.50258 8.3041 5.4459C8.24742 5.38922 8.20267 5.32176 8.1725 5.2475C8.14003 5.16908 8.12386 5.08487 8.125 5C8.12542 4.91042 8.14125 4.82792 8.1725 4.7525C8.20267 4.67824 8.24742 4.61078 8.3041 4.5541C8.36078 4.49742 8.42824 4.45267 8.5025 4.4225C8.57792 4.39125 8.66042 4.37542 8.75 4.375C9.10625 4.375 9.375 4.64375 9.375 5H10.625C10.6246 4.80385 10.5934 4.60898 10.5325 4.4225C10.4403 4.15178 10.2884 3.90527 10.0881 3.70122C9.88771 3.49717 9.644 3.34082 9.375 3.24375V2.5H8.125ZM0 11.25V16.25H1.25V12.5H4.6125C4.08215 12.1461 3.59909 11.7261 3.175 11.25H0ZM14.325 11.25C13.9009 11.7261 13.4179 12.1461 12.8875 12.5H16.25V16.25H17.5V11.25H14.325ZM2.5 13.75V15H15V13.75H2.5Z" fill="black"/>
</svg>
