<svg width="54" height="40" viewBox="0 0 54 40" fill="none" xmlns="http://www.w3.org/2000/svg">
<path d="M5 40C3.625 40 2.44792 39.5104 1.46875 38.5312C0.489583 37.5521 0 36.375 0 35V5C0 3.625 0.489583 2.44792 1.46875 1.46875C2.44792 0.489583 3.625 0 5 0H20L25 5H45C46.375 5 47.5521 5.48958 48.5312 6.46875C49.5104 7.44792 50 8.625 50 10H22.9375L17.9375 5H5V35L11 15H53.75L47.3125 36.4375C46.9792 37.5208 46.3646 38.3854 45.4688 39.0312C44.5729 39.6771 43.5833 40 42.5 40H5ZM10.25 35H42.5L47 20H14.75L10.25 35ZM10.25 35L14.75 20L10.25 35ZM5 10V5V10Z" fill="#CBD5E1"/>
</svg>
