<svg width="19" height="17" viewBox="0 0 19 17" fill="none" xmlns="http://www.w3.org/2000/svg">
<path d="M8.32031 3.32031V0H0V15H11.6406V13.3203H8.32031V11.6797H10V10H8.32031V8.32031H10V6.67969H8.32031V5H15V10H16.6406V3.32031H8.32031ZM3.32031 13.3203H1.64062V11.6797H3.32031V13.3203ZM3.32031 10H1.64062V8.32031H3.32031V10ZM3.32031 6.67969H1.64062V5H3.32031V6.67969ZM3.32031 3.32031H1.64062V1.67969H3.32031V3.32031ZM6.64062 13.3203H5V11.6797H6.64062V13.3203ZM6.64062 10H5V8.32031H6.64062V10ZM6.64062 6.67969H5V5H6.64062V6.67969ZM6.64062 3.32031H5V1.67969H6.64062V3.32031ZM18.3203 13.3203V15H16.6406V16.6797H15V15H13.3203V13.3203H15V11.6797H16.6406V13.3203H18.3203ZM13.3203 6.67969H11.6406V8.32031H13.3203V6.67969ZM13.3203 10H11.6406V11.6797H13.3203V10Z" fill="#2563EB"/>
</svg>
