<svg width="15" height="15" viewBox="0 0 15 15" fill="none" xmlns="http://www.w3.org/2000/svg">
<path fill-rule="evenodd" clip-rule="evenodd" d="M9.75 9C10.7446 9 11.6984 9.39509 12.4016 10.0983C13.1049 10.8016 13.5 11.7554 13.5 12.75V14.25C13.5 14.4489 13.421 14.6397 13.2803 14.7803C13.1397 14.921 12.9489 15 12.75 15C12.5511 15 12.3603 14.921 12.2197 14.7803C12.079 14.6397 12 14.4489 12 14.25V12.75C12 12.1533 11.7629 11.581 11.341 11.159C10.919 10.7371 10.3467 10.5 9.75 10.5H3.75C3.15326 10.5 2.58097 10.7371 2.15901 11.159C1.73705 11.581 1.5 12.1533 1.5 12.75V14.25C1.5 14.4489 1.42098 14.6397 1.28033 14.7803C1.13968 14.921 0.948912 15 0.75 15C0.551088 15 0.360322 14.921 0.21967 14.7803C0.0790176 14.6397 0 14.4489 0 14.25V12.75C0 11.7554 0.395088 10.8016 1.09835 10.0983C1.80161 9.39509 2.75544 9 3.75 9H9.75ZM12.75 4.5C12.9489 4.5 13.1397 4.57902 13.2803 4.71967C13.421 4.86032 13.5 5.05109 13.5 5.25V6H14.25C14.4489 6 14.6397 6.07902 14.7803 6.21967C14.921 6.36032 15 6.55109 15 6.75C15 6.94891 14.921 7.13968 14.7803 7.28033C14.6397 7.42098 14.4489 7.5 14.25 7.5H13.5V8.25C13.5 8.44891 13.421 8.63968 13.2803 8.78033C13.1397 8.92098 12.9489 9 12.75 9C12.5511 9 12.3603 8.92098 12.2197 8.78033C12.079 8.63968 12 8.44891 12 8.25V7.5H11.25C11.0511 7.5 10.8603 7.42098 10.7197 7.28033C10.579 7.13968 10.5 6.94891 10.5 6.75C10.5 6.55109 10.579 6.36032 10.7197 6.21967C10.8603 6.07902 11.0511 6 11.25 6H12V5.25C12 5.05109 12.079 4.86032 12.2197 4.71967C12.3603 4.57902 12.5511 4.5 12.75 4.5ZM6.75 0C7.74456 0 8.69839 0.395088 9.40165 1.09835C10.1049 1.80161 10.5 2.75544 10.5 3.75C10.5 4.74456 10.1049 5.69839 9.40165 6.40165C8.69839 7.10491 7.74456 7.5 6.75 7.5C5.75544 7.5 4.80161 7.10491 4.09835 6.40165C3.39509 5.69839 3 4.74456 3 3.75C3 2.75544 3.39509 1.80161 4.09835 1.09835C4.80161 0.395088 5.75544 0 6.75 0ZM6.75 1.5C6.45453 1.5 6.16194 1.5582 5.88896 1.67127C5.61598 1.78434 5.36794 1.95008 5.15901 2.15901C4.95008 2.36794 4.78434 2.61598 4.67127 2.88896C4.5582 3.16194 4.5 3.45453 4.5 3.75C4.5 4.04547 4.5582 4.33805 4.67127 4.61104C4.78434 4.88402 4.95008 5.13206 5.15901 5.34099C5.36794 5.54992 5.61598 5.71566 5.88896 5.82873C6.16194 5.9418 6.45453 6 6.75 6C7.34674 6 7.91903 5.76295 8.34099 5.34099C8.76295 4.91903 9 4.34674 9 3.75C9 3.15326 8.76295 2.58097 8.34099 2.15901C7.91903 1.73705 7.34674 1.5 6.75 1.5Z" fill="black"/>
</svg>
