<svg width="19" height="14" viewBox="0 0 19 14" fill="none" xmlns="http://www.w3.org/2000/svg">
<path d="M7.28516 9.27734C8.80859 8.66536 10.2734 8.35938 11.6797 8.35938C13.0859 8.35938 14.5508 8.66536 16.0742 9.27734C17.5977 9.88932 18.3594 10.6901 18.3594 11.6797V13.3594H5V11.6797C5 10.6901 5.76172 9.88932 7.28516 9.27734ZM4.17969 5H6.67969V6.67969H4.17969V9.17969H2.5V6.67969H0V5H2.5V2.5H4.17969V5ZM14.0234 5.70312C13.3724 6.35417 12.5911 6.67969 11.6797 6.67969C10.7682 6.67969 9.98698 6.35417 9.33594 5.70312C8.6849 5.05208 8.35938 4.27083 8.35938 3.35938C8.35938 2.44792 8.6849 1.66016 9.33594 0.996094C9.98698 0.332031 10.7682 0 11.6797 0C12.5911 0 13.3724 0.332031 14.0234 0.996094C14.6745 1.66016 15 2.44792 15 3.35938C15 4.27083 14.6745 5.05208 14.0234 5.70312Z" fill="#F79367"/>
</svg>
