<svg width="22" height="22" viewBox="0 0 22 22" fill="none" xmlns="http://www.w3.org/2000/svg">
<path d="M10.0098 9.55078C10.0098 9.36844 9.93733 9.19358 9.8084 9.06465C9.67947 8.93571 9.5046 8.86328 9.32227 8.86328C9.13993 8.86328 8.96506 8.93571 8.83613 9.06465C8.7072 9.19358 8.63477 9.36844 8.63477 9.55078V14.2835C8.63477 14.4659 8.7072 14.6407 8.83613 14.7697C8.96506 14.8986 9.13993 14.971 9.32227 14.971C9.5046 14.971 9.67947 14.8986 9.8084 14.7697C9.93733 14.6407 10.0098 14.4659 10.0098 14.2835V12.6042H11.9898V14.2835C11.9898 14.4659 12.0622 14.6407 12.1911 14.7697C12.3201 14.8986 12.4949 14.971 12.6773 14.971C12.8596 14.971 13.0345 14.8986 13.1634 14.7697C13.2923 14.6407 13.3648 14.4659 13.3648 14.2835V9.55078C13.3648 9.36844 13.2923 9.19358 13.1634 9.06465C13.0345 8.93571 12.8596 8.86328 12.6773 8.86328C12.4949 8.86328 12.3201 8.93571 12.1911 9.06465C12.0622 9.19358 11.9898 9.36844 11.9898 9.55078V11.2292H10.0098V9.55078Z" fill="black"/>
<path fill-rule="evenodd" clip-rule="evenodd" d="M12.2368 3.39688C11.5035 2.84687 10.4952 2.84687 9.76185 3.39688L3.80352 7.86563C3.54736 8.05774 3.33945 8.30686 3.19626 8.59325C3.05306 8.87964 2.97852 9.19543 2.97852 9.51562V16.9599C2.97852 17.5069 3.19581 18.0315 3.58261 18.4183C3.9694 18.8051 4.49401 19.0224 5.04102 19.0224H16.9577C17.5047 19.0224 18.0293 18.8051 18.4161 18.4183C18.8029 18.0315 19.0202 17.5069 19.0202 16.9599V9.51654C19.0202 9.19635 18.9456 8.88055 18.8024 8.59416C18.6592 8.30777 18.4513 8.05866 18.1952 7.86654L12.2368 3.39688ZM10.5868 4.49687C10.7059 4.40762 10.8506 4.35938 10.9993 4.35938C11.1481 4.35938 11.2928 4.40762 11.4118 4.49687L17.3702 8.96563C17.4556 9.02966 17.5249 9.1127 17.5726 9.20817C17.6203 9.30363 17.6452 9.40889 17.6452 9.51562V16.9599C17.6452 17.1422 17.5727 17.3171 17.4438 17.446C17.3149 17.5749 17.14 17.6474 16.9577 17.6474H5.04102C4.85868 17.6474 4.68381 17.5749 4.55488 17.446C4.42595 17.3171 4.35352 17.1422 4.35352 16.9599V9.51654C4.35352 9.40981 4.37837 9.30455 4.4261 9.20908C4.47383 9.11362 4.54313 9.03058 4.62852 8.96654L10.5868 4.49687Z" fill="black"/>
</svg>
