<svg width="18" height="18" viewBox="0 0 18 18" fill="none" xmlns="http://www.w3.org/2000/svg">
<path d="M15.9497 11.4583L14.2813 10.2667C14.5563 9.27667 14.5747 8.20417 14.2813 7.13167L15.9497 5.95833L14.6205 3.66667L12.7597 4.51C12.0355 3.77667 11.1188 3.20833 10.0463 2.9425L9.86301 0.916667H7.20468L7.02135 2.9425C5.94884 3.20833 5.03218 3.77667 4.30801 4.51L2.44718 3.66667L1.11801 5.95833L2.78634 7.13167C2.49301 8.20417 2.51134 9.27667 2.78634 10.2667L1.11801 11.4583L2.44718 13.75L4.30801 12.8975C5.03218 13.6217 5.94884 14.1717 7.02135 14.4558L7.20468 16.5H9.86301L10.0463 14.4558C11.1188 14.1717 12.0355 13.6217 12.7597 12.8975L14.6205 13.75L15.9497 11.4583ZM10.3672 0C10.6147 0 10.8255 0.183333 10.8255 0.421667L10.9905 2.29167C11.6872 2.54833 12.3105 2.92417 12.8697 3.37333L14.5655 2.57583C14.7763 2.46583 15.0422 2.53917 15.1705 2.75L17.0038 5.95833C17.1322 6.15083 17.0588 6.41667 16.8572 6.55417L15.3263 7.62667C15.4455 8.36 15.4363 9.08417 15.3263 9.79L16.8572 10.8625C17.0588 11 17.1322 11.2658 17.0038 11.4583L15.1705 14.6667C15.0422 14.8592 14.7763 14.9325 14.5655 14.8225L12.8697 14.0342C12.3105 14.4833 11.6872 14.85 10.9905 15.125L10.8255 16.9583C10.8255 17.2242 10.6147 17.4167 10.3672 17.4167H6.70051C6.57895 17.4167 6.46237 17.3684 6.37642 17.2824C6.29047 17.1965 6.24218 17.0799 6.24218 16.9583L6.07718 15.125C5.38051 14.85 4.75718 14.4833 4.19801 14.0342L2.50218 14.8225C2.29134 14.9325 2.02551 14.8592 1.89718 14.6667L0.0638447 11.4583C-0.0644886 11.2658 0.00884479 11 0.210511 10.8625L1.74134 9.79C1.63134 9.08417 1.62218 8.36 1.74134 7.62667L0.210511 6.55417C0.00884479 6.41667 -0.0644886 6.15083 0.0638447 5.95833L1.89718 2.75C2.02551 2.53917 2.29134 2.46583 2.50218 2.57583L4.19801 3.37333C4.75718 2.92417 5.38051 2.54833 6.07718 2.29167L6.24218 0.421667C6.24218 0.183333 6.45301 0 6.70051 0H10.3672ZM8.53384 5.5C9.38475 5.5 10.2008 5.83802 10.8025 6.4397C11.4042 7.04138 11.7422 7.85743 11.7422 8.70833C11.7422 9.55924 11.4042 10.3753 10.8025 10.977C10.2008 11.5786 9.38475 11.9167 8.53384 11.9167C7.68294 11.9167 6.86689 11.5786 6.26521 10.977C5.66353 10.3753 5.32551 9.55924 5.32551 8.70833C5.32551 7.85743 5.66353 7.04138 6.26521 6.4397C6.86689 5.83802 7.68294 5.5 8.53384 5.5ZM8.53384 6.41667C7.92606 6.41667 7.34316 6.65811 6.91339 7.08788C6.48362 7.51765 6.24218 8.10054 6.24218 8.70833C6.24218 9.31612 6.48362 9.89902 6.91339 10.3288C7.34316 10.7586 7.92606 11 8.53384 11C9.14163 11 9.72453 10.7586 10.1543 10.3288C10.5841 9.89902 10.8255 9.31612 10.8255 8.70833C10.8255 8.10054 10.5841 7.51765 10.1543 7.08788C9.72453 6.65811 9.14163 6.41667 8.53384 6.41667Z" fill="black"/>
</svg>
