<svg width="20" height="20" viewBox="0 0 20 20" fill="none" xmlns="http://www.w3.org/2000/svg">
<path d="M15.9844 11.4844V9.98438H12V11.4844H15.9844ZM15.9844 14.4844V12.9844H12V14.4844H15.9844ZM10.9688 6.98438V1.96875H9V6.98438H10.9688ZM9.98438 15.9844V15.2344C9.98438 14.7969 9.64062 14.4375 8.95312 14.1562C8.26562 13.875 7.60938 13.7344 6.98438 13.7344C6.35938 13.7344 5.70312 13.875 5.01562 14.1562C4.32812 14.4375 3.98438 14.7969 3.98438 15.2344V15.9844H9.98438ZM8.0625 10.4062C7.78125 10.125 7.42188 9.98438 6.98438 9.98438C6.54688 9.98438 6.1875 10.125 5.90625 10.4062C5.625 10.6875 5.48438 11.0469 5.48438 11.4844C5.48438 11.9219 5.625 12.2812 5.90625 12.5625C6.1875 12.8438 6.54688 12.9844 6.98438 12.9844C7.42188 12.9844 7.78125 12.8438 8.0625 12.5625C8.34375 12.2812 8.48438 11.9219 8.48438 11.4844C8.48438 11.0469 8.34375 10.6875 8.0625 10.4062ZM18 4.96875C18.5312 4.96875 18.9922 5.17188 19.3828 5.57812C19.7734 5.98438 19.9688 6.45312 19.9688 6.98438V18C19.9688 18.5312 19.7734 18.9922 19.3828 19.3828C18.9922 19.7734 18.5312 19.9688 18 19.9688H1.96875C1.4375 19.9688 0.976562 19.7734 0.585938 19.3828C0.195312 18.9922 0 18.5312 0 18V6.98438C0 6.45312 0.195312 5.98438 0.585938 5.57812C0.976562 5.17188 1.4375 4.96875 1.96875 4.96875H6.98438V1.96875C6.98438 1.4375 7.1875 0.976562 7.59375 0.585938C8 0.195312 8.46875 0 9 0H10.9688C11.5 0 11.9688 0.195312 12.375 0.585938C12.7812 0.976562 12.9844 1.4375 12.9844 1.96875V4.96875H18Z" fill="#ABABAB"/>
</svg>
