<svg width="22" height="18" viewBox="0 0 22 18" fill="none" xmlns="http://www.w3.org/2000/svg">
<path d="M8.01562 12C7.48438 12 6.86719 12.0547 6.16406 12.1641C5.46094 12.2734 4.75 12.4375 4.03125 12.6562C3.3125 12.875 2.64844 13.1406 2.03906 13.4531C1.42969 13.7656 0.9375 14.1328 0.5625 14.5547C0.1875 14.9766 0 15.4531 0 15.9844V18H16.0312V15.9844C16.0312 15.4531 15.8438 14.9766 15.4688 14.5547C15.0938 14.1328 14.6016 13.7656 13.9922 13.4531C13.3828 13.1406 12.7188 12.875 12 12.6562C11.2812 12.4375 10.5703 12.2734 9.86719 12.1641C9.16406 12.0547 8.54688 12 8.01562 12ZM21.0938 3.84375C21.125 3.78125 21.1406 3.72656 21.1406 3.67969C21.1406 3.63281 21.1406 3.57812 21.1406 3.51562C21.1406 3.39062 21.125 3.26562 21.0938 3.14062L21.8438 2.57812C21.9375 2.51562 21.9531 2.4375 21.8906 2.34375L21.1875 1.17188C21.1562 1.07812 21.0781 1.04688 20.9531 1.07812L20.1094 1.40625C19.9531 1.28125 19.7656 1.17188 19.5469 1.07812L19.4062 0.140625C19.375 0.046875 19.3125 0 19.2188 0H17.8125C17.7188 0 17.6562 0.046875 17.625 0.140625L17.5312 1.07812C17.3125 1.17188 17.1094 1.28125 16.9219 1.40625L16.0781 1.07812C15.9531 1.04688 15.875 1.07812 15.8438 1.17188L15.1406 2.34375C15.1094 2.4375 15.125 2.51562 15.1875 2.57812L15.9375 3.14062C15.9062 3.26562 15.8906 3.39062 15.8906 3.51562C15.8906 3.60938 15.9062 3.71875 15.9375 3.84375L15.1875 4.40625C15.0938 4.46875 15.0781 4.54688 15.1406 4.64062L15.8438 5.85938C15.875 5.92188 15.9531 5.95312 16.0781 5.95312L16.9219 5.57812C17.0781 5.70312 17.2812 5.8125 17.5312 5.90625L17.625 6.84375C17.6562 6.9375 17.7188 6.98438 17.8125 6.98438H19.2188C19.3125 6.98438 19.375 6.9375 19.4062 6.84375L19.5 5.90625C19.7188 5.84375 19.9219 5.73438 20.1094 5.57812L20.9531 5.95312C21.0781 5.98438 21.1562 5.95312 21.1875 5.85938L21.8906 4.64062C21.9219 4.54688 21.9062 4.46875 21.8438 4.40625L21.0938 3.84375ZM18.5156 4.73438C18.1719 4.73438 17.875 4.61719 17.625 4.38281C17.375 4.14844 17.25 3.85938 17.25 3.51562C17.25 3.17188 17.375 2.875 17.625 2.625C17.875 2.375 18.1719 2.25 18.5156 2.25C18.8594 2.25 19.1562 2.375 19.4062 2.625C19.6562 2.875 19.7812 3.17188 19.7812 3.51562C19.7812 3.85938 19.6562 4.14844 19.4062 4.38281C19.1562 4.61719 18.8594 4.73438 18.5156 4.73438ZM18.9375 8.67188L18.4219 7.82812C18.3906 7.73438 18.3438 7.70312 18.2812 7.73438L17.6719 8.01562C17.5469 7.89062 17.4062 7.8125 17.25 7.78125L17.1562 7.07812C17.125 7.01562 17.0781 6.98438 17.0156 6.98438H16.0312C15.9375 6.98438 15.8906 7.03125 15.8906 7.125L15.7969 7.78125C15.7344 7.8125 15.6641 7.84375 15.5859 7.875C15.5078 7.90625 15.4375 7.95312 15.375 8.01562L14.7656 7.78125C14.7031 7.75 14.6562 7.76562 14.625 7.82812L14.1094 8.67188C14.0781 8.73438 14.0938 8.79688 14.1562 8.85938L14.6719 9.28125C14.6719 9.375 14.6719 9.45312 14.6719 9.51562C14.6719 9.57812 14.6719 9.65625 14.6719 9.75L14.1562 10.1719C14.0938 10.2031 14.0781 10.25 14.1094 10.3125L14.625 11.2031C14.6562 11.2656 14.7031 11.2812 14.7656 11.25L15.375 10.9688C15.5 11.0938 15.6406 11.1875 15.7969 11.25L15.8906 11.9062C15.8906 11.9688 15.9375 12 16.0312 12H17.0156C17.1094 12 17.1562 11.9688 17.1562 11.9062L17.2031 11.25C17.2969 11.2188 17.375 11.1797 17.4375 11.1328C17.5 11.0859 17.5625 11.0312 17.625 10.9688L18.2812 11.25C18.3438 11.2812 18.3906 11.2656 18.4219 11.2031L18.9375 10.3125C18.9688 10.25 18.9531 10.2031 18.8906 10.1719L18.375 9.75C18.375 9.625 18.375 9.54688 18.375 9.51562C18.375 9.45312 18.375 9.375 18.375 9.28125L18.8906 8.85938C18.9531 8.79688 18.9688 8.73438 18.9375 8.67188ZM16.5 10.3125C16.2812 10.3125 16.0938 10.2344 15.9375 10.0781C15.7812 9.92188 15.7031 9.73438 15.7031 9.51562C15.7031 9.26562 15.7812 9.0625 15.9375 8.90625C16.0938 8.75 16.2812 8.67188 16.5 8.67188C16.75 8.67188 16.9531 8.75 17.1094 8.90625C17.2656 9.0625 17.3438 9.26562 17.3438 9.51562C17.3438 9.73438 17.2656 9.92188 17.1094 10.0781C16.9531 10.2344 16.75 10.3125 16.5 10.3125ZM3.75 6H12.2812C12.4062 6 12.5234 5.95312 12.6328 5.85938C12.7422 5.76562 12.7969 5.65625 12.7969 5.53125V5.48438C12.7969 5.35938 12.7422 5.25 12.6328 5.15625C12.5234 5.0625 12.4062 5.01562 12.2812 5.01562H12C12 4.26562 11.8203 3.58594 11.4609 2.97656C11.1016 2.36719 10.625 1.89062 10.0312 1.54688V2.48438C10.0312 2.64062 9.97656 2.76562 9.86719 2.85938C9.75781 2.95312 9.64062 3 9.51562 3C9.39062 3 9.27344 2.95312 9.16406 2.85938C9.05469 2.76562 9 2.64062 9 2.48438V1.125C8.84375 1.09375 8.6875 1.0625 8.53125 1.03125C8.375 1 8.20312 0.984375 8.01562 0.984375C7.82812 0.984375 7.65625 1 7.5 1.03125C7.34375 1.0625 7.1875 1.09375 7.03125 1.125V2.48438C7.03125 2.64062 6.97656 2.76562 6.86719 2.85938C6.75781 2.95312 6.64062 3 6.51562 3C6.39062 3 6.27344 2.95312 6.16406 2.85938C6.05469 2.76562 6 2.64062 6 2.48438V1.54688C5.40625 1.89062 4.92969 2.36719 4.57031 2.97656C4.21094 3.58594 4.03125 4.26562 4.03125 5.01562H3.75C3.625 5.01562 3.51562 5.0625 3.42188 5.15625C3.32812 5.25 3.28125 5.35938 3.28125 5.48438V5.53125C3.28125 5.65625 3.32812 5.76562 3.42188 5.85938C3.51562 5.95312 3.625 6 3.75 6ZM8.01562 9.98438C8.95312 9.98438 9.77344 9.70312 10.4766 9.14062C11.1797 8.57812 11.6406 7.85938 11.8594 6.98438H4.17188C4.39062 7.85938 4.85156 8.57812 5.55469 9.14062C6.25781 9.70312 7.07812 9.98438 8.01562 9.98438Z" fill="#9333EA"/>
</svg>
