<svg width="10" height="13" viewBox="0 0 10 13" fill="none" xmlns="http://www.w3.org/2000/svg">
<path d="M3.31042 6.825L3.82083 5.1625L2.47917 4.08333H4.14167L4.66667 2.45L5.19167 4.08333H6.85417L5.49792 5.1625L6.00833 6.825L4.66667 5.78958L3.31042 6.825ZM1.16667 12.25V7.74375C0.797222 7.33542 0.510417 6.86875 0.30625 6.34375C0.102083 5.81875 0 5.25972 0 4.66667C0 3.36389 0.452083 2.26042 1.35625 1.35625C2.26042 0.452083 3.36389 0 4.66667 0C5.96944 0 7.07292 0.452083 7.97708 1.35625C8.88125 2.26042 9.33333 3.36389 9.33333 4.66667C9.33333 5.25972 9.23125 5.81875 9.02708 6.34375C8.82292 6.86875 8.53611 7.33542 8.16667 7.74375V12.25L4.66667 11.0833L1.16667 12.25ZM4.66667 8.16667C5.63889 8.16667 6.46528 7.82639 7.14583 7.14583C7.82639 6.46528 8.16667 5.63889 8.16667 4.66667C8.16667 3.69444 7.82639 2.86806 7.14583 2.1875C6.46528 1.50694 5.63889 1.16667 4.66667 1.16667C3.69444 1.16667 2.86806 1.50694 2.1875 2.1875C1.50694 2.86806 1.16667 3.69444 1.16667 4.66667C1.16667 5.63889 1.50694 6.46528 2.1875 7.14583C2.86806 7.82639 3.69444 8.16667 4.66667 8.16667ZM2.33333 10.5146L4.66667 9.91667L7 10.5146V8.70625C6.65972 8.90069 6.29271 9.05382 5.89896 9.16562C5.50521 9.27743 5.09444 9.33333 4.66667 9.33333C4.23889 9.33333 3.82812 9.27743 3.43438 9.16562C3.04063 9.05382 2.67361 8.90069 2.33333 8.70625V10.5146Z" fill="#FB923C"/>
</svg>
