<svg width="42" height="42" viewBox="0 0 42 42" fill="none" xmlns="http://www.w3.org/2000/svg">
<g clip-path="url(#clip0_8061_89283)">
<path d="M33.4432 3.12109H14.1758V11.1111H37.5582V7.23451C37.5582 4.96616 35.7122 3.12109 33.4432 3.12109Z" fill="#CED9F9"/>
<path d="M22.5352 12.3403H0V4.92636C0 2.20972 2.21068 0 4.92828 0H12.1336C12.8497 0 13.5396 0.150925 14.1664 0.434509C15.0418 0.828964 15.7939 1.47913 16.3213 2.3286L22.5352 12.3403Z" fill="#1640C1"/>
<path d="M42 13.9984V37.8798C42 40.151 40.1511 41.9983 37.8789 41.9983H4.12111C1.84891 41.9983 0 40.151 0 37.8798V9.87891H37.8789C40.1511 9.87891 42 11.7269 42 13.9984Z" fill="#2354E6"/>
<path d="M42 13.9984V37.8798C42 40.151 40.1511 41.9983 37.8789 41.9983H21V9.87891H37.8789C40.1511 9.87891 42 11.7269 42 13.9984Z" fill="#1849D6"/>
<path d="M32.049 25.9386C32.049 32.031 27.0928 36.9875 21.0011 36.9875C14.9093 36.9875 9.95312 32.031 9.95312 25.9386C9.95312 19.8471 14.9093 14.8906 21.0011 14.8906C27.0928 14.8906 32.049 19.8471 32.049 25.9386Z" fill="#E7ECFC"/>
<path d="M32.0479 25.9386C32.0479 32.031 27.0918 36.9875 21 36.9875V14.8906C27.0918 14.8906 32.0479 19.8471 32.0479 25.9386Z" fill="#CED9F9"/>
<path d="M24.5593 26.0758C24.3289 26.2709 24.0466 26.3661 23.7668 26.3661C23.4166 26.3661 23.0686 26.2177 22.8251 25.9287L22.2287 25.2218V29.8499C22.2287 30.5292 21.6776 31.0803 20.9983 31.0803C20.3189 31.0803 19.7678 30.5292 19.7678 29.8499V25.2218L19.1715 25.9287C18.7325 26.4481 17.9567 26.5145 17.4373 26.0758C16.9182 25.6378 16.8515 24.8617 17.2896 24.3422L19.7252 21.4548C20.0427 21.0793 20.5061 20.8633 20.9983 20.8633C21.4905 20.8633 21.9538 21.0793 22.2714 21.4548L24.707 24.3422C25.145 24.8617 25.0784 25.6378 24.5593 26.0758Z" fill="#6C8DEF"/>
<path d="M24.561 26.0758C24.3306 26.2709 24.0483 26.3661 23.7686 26.3661C23.4183 26.3661 23.0703 26.2177 22.8268 25.9287L22.2305 25.2218V29.8499C22.2305 30.5292 21.6793 31.0803 21 31.0803V20.8633C21.4922 20.8633 21.9555 21.0793 22.2731 21.4548L24.7087 24.3422C25.1467 24.8617 25.0801 25.6378 24.561 26.0758Z" fill="#3B67E9"/>
</g>
<defs>
<clipPath id="clip0_8061_89283">
<rect width="42" height="42" fill="white"/>
</clipPath>
</defs>
</svg>
